<svg width="22" height="24" viewBox="0 0 22 24" fill="none" xmlns="http://www.w3.org/2000/svg">
<path d="M21.7063 9.84202C19.6421 9.84696 17.6285 9.20321 15.95 8.00171V16.3813C15.9494 17.9333 15.475 19.4482 14.5903 20.7233C13.7055 21.9984 12.4526 22.973 10.999 23.5168C9.54537 24.0606 7.96039 24.1477 6.45596 23.7664C4.95154 23.3851 3.59938 22.5536 2.58029 21.383C1.5612 20.2125 0.923763 18.7587 0.753202 17.2161C0.582641 15.6735 0.88709 14.1156 1.62584 12.7507C2.36459 11.3858 3.50243 10.279 4.88721 9.57823C6.272 8.87746 7.83772 8.61616 9.37501 8.82927V13.0439C8.67154 12.8227 7.91614 12.8293 7.21669 13.063C6.51723 13.2966 5.90949 13.7453 5.48025 14.345C5.05102 14.9446 4.82224 15.6646 4.82658 16.402C4.83092 17.1395 5.06817 17.8567 5.50444 18.4512C5.94071 19.0458 6.5537 19.4873 7.25586 19.7127C7.95801 19.9381 8.71344 19.9359 9.41426 19.7063C10.1151 19.4768 10.7254 19.0316 11.1582 18.4345C11.5909 17.8374 11.8239 17.1188 11.8239 16.3813V0H15.95C15.9471 0.348435 15.9763 0.696395 16.0372 1.03948C16.1805 1.80537 16.4787 2.53396 16.9133 3.18068C17.3479 3.8274 17.9099 4.37867 18.5648 4.80075C19.4967 5.41688 20.5892 5.74528 21.7063 5.74505V9.84202Z" fill="white"/>
</svg>
