<svg width="33" height="24" viewBox="0 0 33 24" fill="none" xmlns="http://www.w3.org/2000/svg">
<path d="M27.5026 0.793633L25.4667 2.3842L16.7981 8.826L8.12953 2.32058L6.09361 0.730011C5.61398 0.333236 5.02848 0.0858951 4.40966 0.0186301C3.79083 -0.048635 3.16586 0.0671324 2.61219 0.35159C2.05851 0.636047 1.60046 1.07669 1.29477 1.61894C0.989088 2.16118 0.849205 2.78119 0.892455 3.40216V21.8368C0.892455 22.4105 1.12036 22.9607 1.52603 23.3664C1.93171 23.7721 2.48192 24 3.05563 24H8.12953V11.7208L16.7981 18.2262L25.4667 11.7208V24H30.5406C31.1143 24 31.6645 23.7721 32.0702 23.3664C32.4759 22.9607 32.7038 22.4105 32.7038 21.8368V3.40216C32.7337 2.78655 32.584 2.17552 32.2731 1.64335C31.9622 1.11118 31.5034 0.680777 30.9525 0.40447C30.4016 0.128164 29.7823 0.0178495 29.1698 0.0869368C28.5574 0.156024 27.9782 0.401537 27.5026 0.793633Z" fill="white"/>
</svg>
