<svg width="734" height="424" viewBox="0 0 734 424" fill="none" xmlns="http://www.w3.org/2000/svg">
<path fill-rule="evenodd" clip-rule="evenodd" d="M343.563 6.04298V11.5527L397.181 25.0302V0L343.563 6.04298ZM362.013 313.061C363.673 313.049 365.336 313.044 367 313.044C368.66 313.044 370.319 313.049 371.975 313.061C370.319 313.046 368.66 313.039 366.999 313.039C365.334 313.039 363.672 313.046 362.013 313.061ZM407.941 314.189V33.6566L326.056 13.0692V314.189C322.664 314.38 319.282 314.594 315.909 314.831V68.348L234.024 47.7606V325.428C230.909 326.021 227.806 326.635 224.715 327.269V96.9299L142.825 117.513V349.684C139.42 350.866 136.036 352.073 132.675 353.307V244.404L50.7895 230.658V390.825C32.8242 400.91 15.8543 411.835 0 423.517C99.4627 375.664 227.406 346.867 367 346.867C506.594 346.867 634.533 375.664 734 423.517C718.147 411.836 701.178 400.911 683.214 390.827V200.544L601.329 214.29V353.308C597.968 352.075 594.584 350.867 591.179 349.685V145.498L509.289 124.91V327.27C506.198 326.636 503.095 326.022 499.98 325.428V75.745L418.095 96.3276V314.831C414.72 314.594 411.335 314.379 407.941 314.189ZM362.25 49.759H336.82V69.6319H362.25V49.759ZM397.177 64.4331H371.748V84.306H397.177V64.4331ZM362.25 79.0978H336.82V98.9707H362.25V79.0978ZM397.177 93.7673H371.748V113.64H397.177V93.7673ZM362.25 108.437H336.82V128.31H362.25V108.437ZM397.177 123.106H371.748V142.979H397.177V123.106ZM270.217 101.912H244.788V121.79H270.217V101.912ZM305.15 116.581H279.72V136.454H305.15V116.581ZM270.217 131.251H244.788V151.124H270.217V131.251ZM305.15 145.92H279.72V165.793H305.15V145.92ZM270.217 160.585H244.788V180.463H270.217V160.585ZM305.15 175.259H279.72V195.132H305.15V175.259ZM463.791 117.977H489.215V137.85H463.791V117.977ZM428.854 132.647H454.288V152.52H428.854V132.647ZM463.791 147.311H489.215V167.184H463.791V147.311ZM428.854 161.981H454.288V181.858H428.854V161.981ZM463.791 176.65H489.215V196.523H463.791V176.65ZM428.854 191.32H454.288V211.193H428.854V191.32ZM545.482 167.142H520.053V187.015H545.482V167.142ZM580.414 181.811H554.985V201.685H580.414V181.811ZM545.482 196.476H520.053V216.354H545.482V196.476ZM580.414 211.151H554.985V231.023H580.414V211.151ZM545.482 225.815H520.053V245.688H545.482V225.815ZM580.414 240.485H554.985V260.358H580.414V240.485ZM61.5505 218.687V226.979L121.912 237.108V212.412L61.5505 218.687ZM188.521 139.162H213.95V159.04H188.521V139.162ZM153.589 153.827H179.018V173.704H153.589V153.827ZM188.521 168.501H213.95V188.374H188.521V168.501ZM153.589 183.166H179.018V203.039H153.589V183.166ZM188.521 197.835H213.95V217.708H188.521V197.835ZM153.589 212.528H179.018V232.405H153.589V212.528ZM188.521 227.225H213.95V247.098H188.521V227.225ZM153.589 241.89H179.018V261.763H153.589V241.89ZM61.5492 263.289H86.9784V283.167H61.5492V263.289ZM96.4812 271.285H121.91V291.158H96.4812V271.285ZM61.5492 292.628H86.9784V312.501H61.5492V292.628ZM96.4812 300.624H121.91V320.497H96.4812V300.624ZM526.797 123.389V117.875L580.415 111.832V136.867L526.797 123.389ZM153.584 108.887L207.202 95.409V89.8993L153.584 83.8564V108.887ZM672.455 233.175H647.025V253.049H672.455V233.175ZM637.522 241.176H612.093V261.049H637.522V241.176ZM672.455 262.51H647.025V282.387H672.455V262.51ZM637.522 270.51H612.093V290.383H637.522V270.51ZM672.455 291.849H647.025V311.722H672.455V291.849ZM637.522 299.849H612.093V319.722H637.522V299.849ZM672.453 196.861L612.092 206.995V182.299L672.453 188.578V196.861ZM428.857 87.7007L482.475 74.2232V68.709L428.857 62.6657V87.7007ZM251.531 46.2433V40.7334L305.149 34.6859V59.7209L251.531 46.2433Z" fill="white"/>
</svg>
