<svg width="22" height="22" viewBox="0 0 22 22" fill="none" xmlns="http://www.w3.org/2000/svg">
<path d="M1.83325 5.50016H20.1666M9.16659 10.0835V14.6668M12.8333 10.0835V14.6668M3.66659 5.50016H18.3333L16.8849 18.5352C16.8353 18.9838 16.6219 19.3983 16.2857 19.6993C15.9494 20.0004 15.5139 20.1669 15.0626 20.1668H6.93725C6.48592 20.1669 6.05043 20.0004 5.71419 19.6993C5.37794 19.3983 5.16457 18.9838 5.11492 18.5352L3.66659 5.50016ZM6.73284 2.88491C6.88111 2.57047 7.11573 2.30466 7.40934 2.1185C7.70295 1.93234 8.04343 1.83349 8.39109 1.8335H13.6088C13.9566 1.83332 14.2972 1.93208 14.591 2.11825C14.8848 2.30442 15.1196 2.57033 15.2679 2.88491L16.4999 5.50016H5.49992L6.73284 2.88491V2.88491Z" stroke="#444349" stroke-width="2" stroke-linecap="round" stroke-linejoin="round"/>
</svg>
