<svg width="32" height="32" viewBox="0 0 32 32" fill="none" xmlns="http://www.w3.org/2000/svg">
<path d="M9.33594 22.684L15.2199 22.664L28.0626 9.94403C28.5666 9.44003 28.8439 8.7707 28.8439 8.0587C28.8439 7.3467 28.5666 6.67737 28.0626 6.17337L25.9479 4.0587C24.9399 3.0507 23.1813 3.05603 22.1813 4.0547L9.33594 16.7774V22.684ZM24.0626 5.94403L26.1813 8.0547L24.0519 10.164L21.9373 8.0507L24.0626 5.94403ZM12.0026 17.8894L20.0426 9.92537L22.1573 12.04L14.1186 20.0014L12.0026 20.008V17.8894Z" fill="#757575"/>
<path d="M6.66667 28H25.3333C26.804 28 28 26.804 28 25.3333V13.776L25.3333 16.4427V25.3333H10.8773C10.8427 25.3333 10.8067 25.3467 10.772 25.3467C10.728 25.3467 10.684 25.3347 10.6387 25.3333H6.66667V6.66667H15.796L18.4627 4H6.66667C5.196 4 4 5.196 4 6.66667V25.3333C4 26.804 5.196 28 6.66667 28Z" fill="#757575"/>
</svg>
