<svg width="27" height="27" viewBox="0 0 27 27" fill="none" xmlns="http://www.w3.org/2000/svg">
<path fill-rule="evenodd" clip-rule="evenodd" d="M6.15413 15.4339C6.23251 15.3553 6.32562 15.293 6.42813 15.2505C6.53063 15.2079 6.64053 15.186 6.75151 15.186C6.86249 15.186 6.97238 15.2079 7.07489 15.2505C7.1774 15.293 7.27051 15.3553 7.34888 15.4339L13.5015 21.5882L19.6541 15.4339C19.8126 15.2755 20.0274 15.1865 20.2515 15.1865C20.4756 15.1865 20.6904 15.2755 20.8489 15.4339C21.0073 15.5924 21.0963 15.8072 21.0963 16.0313C21.0963 16.2554 21.0073 16.4702 20.8489 16.6287L14.0989 23.3787C14.0205 23.4572 13.9274 23.5196 13.8249 23.5621C13.7224 23.6047 13.6125 23.6266 13.5015 23.6266C13.3905 23.6266 13.2806 23.6047 13.1781 23.5621C13.0756 23.5196 12.9825 23.4572 12.9041 23.3787L6.15413 16.6287C6.07556 16.5503 6.01322 16.4572 5.97068 16.3547C5.92815 16.2522 5.90625 16.1423 5.90625 16.0313C5.90625 15.9203 5.92815 15.8104 5.97068 15.7079C6.01322 15.6054 6.07556 15.5123 6.15413 15.4339ZM6.15413 11.5662C6.23251 11.6447 6.32562 11.7071 6.42813 11.7496C6.53063 11.7922 6.64053 11.8141 6.75151 11.8141C6.86249 11.8141 6.97238 11.7922 7.07489 11.7496C7.1774 11.7071 7.27051 11.6447 7.34888 11.5662L13.5015 5.41186L19.6541 11.5662C19.8126 11.7246 20.0274 11.8136 20.2515 11.8136C20.4756 11.8136 20.6904 11.7246 20.8489 11.5662C21.0073 11.4077 21.0963 11.1929 21.0963 10.9688C21.0963 10.7447 21.0073 10.5299 20.8489 10.3714L14.0989 3.62142C14.0205 3.54284 13.9274 3.4805 13.8249 3.43797C13.7224 3.39543 13.6125 3.37354 13.5015 3.37354C13.3905 3.37354 13.2806 3.39543 13.1781 3.43797C13.0756 3.4805 12.9825 3.54284 12.9041 3.62142L6.15413 10.3714C6.07556 10.4498 6.01322 10.5429 5.97068 10.6454C5.92815 10.7479 5.90625 10.8578 5.90625 10.9688C5.90625 11.0798 5.92815 11.1897 5.97068 11.2922C6.01322 11.3947 6.07556 11.4878 6.15413 11.5662Z" fill="#757575"/>
</svg>
