<svg width="28" height="28" viewBox="0 0 28 28" fill="none" xmlns="http://www.w3.org/2000/svg">
<path d="M10.5 17.5L17.5 10.5" stroke="#444349" stroke-width="2" stroke-linecap="round" stroke-linejoin="round"/>
<path d="M11.0833 11.6667C11.4055 11.6667 11.6667 11.4055 11.6667 11.0833C11.6667 10.7612 11.4055 10.5 11.0833 10.5C10.7612 10.5 10.5 10.7612 10.5 11.0833C10.5 11.4055 10.7612 11.6667 11.0833 11.6667Z" fill="#444349" stroke="#444349" stroke-width="2" stroke-linecap="round" stroke-linejoin="round"/>
<path d="M16.9193 17.5002C17.2414 17.5002 17.5026 17.239 17.5026 16.9168C17.5026 16.5947 17.2414 16.3335 16.9193 16.3335C16.5971 16.3335 16.3359 16.5947 16.3359 16.9168C16.3359 17.239 16.5971 17.5002 16.9193 17.5002Z" fill="#444349" stroke="#444349" stroke-width="2" stroke-linecap="round" stroke-linejoin="round"/>
<path d="M5.83582 8.40005C5.83582 7.71933 6.10624 7.06649 6.58758 6.58514C7.06893 6.1038 7.72177 5.83338 8.40249 5.83338H9.56916C10.2469 5.833 10.8969 5.56459 11.3775 5.08672L12.1942 4.27005C12.4327 4.03018 12.7163 3.83983 13.0286 3.70994C13.3409 3.58005 13.6759 3.51318 14.0142 3.51318C14.3524 3.51318 14.6874 3.58005 14.9997 3.70994C15.312 3.83983 15.5956 4.03018 15.8342 4.27005L16.6508 5.08672C17.1314 5.56459 17.7814 5.833 18.4592 5.83338H19.6258C20.3065 5.83338 20.9594 6.1038 21.4407 6.58514C21.9221 7.06649 22.1925 7.71933 22.1925 8.40005V9.56672C22.1929 10.2444 22.4613 10.8945 22.9392 11.375L23.7558 12.1917C23.9957 12.4302 24.186 12.7138 24.3159 13.0262C24.4458 13.3385 24.5127 13.6734 24.5127 14.0117C24.5127 14.35 24.4458 14.6849 24.3159 14.9973C24.186 15.3096 23.9957 15.5932 23.7558 15.8317L22.9392 16.6484C22.4613 17.1289 22.1929 17.779 22.1925 18.4567V19.6234C22.1925 20.3041 21.9221 20.9569 21.4407 21.4383C20.9594 21.9196 20.3065 22.1901 19.6258 22.1901H18.4592C17.7814 22.1904 17.1314 22.4588 16.6508 22.9367L15.8342 23.7534C15.5956 23.9933 15.312 24.1836 14.9997 24.3135C14.6874 24.4434 14.3524 24.5103 14.0142 24.5103C13.6759 24.5103 13.3409 24.4434 13.0286 24.3135C12.7163 24.1836 12.4327 23.9933 12.1942 23.7534L11.3775 22.9367C10.8969 22.4588 10.2469 22.1904 9.56916 22.1901H8.40249C7.72177 22.1901 7.06893 21.9196 6.58758 21.4383C6.10624 20.9569 5.83582 20.3041 5.83582 19.6234V18.4567C5.83544 17.779 5.56703 17.1289 5.08916 16.6484L4.27249 15.8317C4.03262 15.5932 3.84227 15.3096 3.71238 14.9973C3.58249 14.6849 3.51562 14.35 3.51562 14.0117C3.51563 13.6734 3.58249 13.3385 3.71238 13.0262C3.84227 12.7138 4.03262 12.4302 4.27249 12.1917L5.08916 11.375C5.56703 10.8945 5.83544 10.2444 5.83582 9.56672V8.40005" stroke="#444349" stroke-width="2" stroke-linecap="round" stroke-linejoin="round"/>
</svg>
