<svg width="27" height="27" viewBox="0 0 27 27" fill="none" xmlns="http://www.w3.org/2000/svg">
<path fill-rule="evenodd" clip-rule="evenodd" d="M13.5 1.125C6.66563 1.125 1.125 6.66563 1.125 13.5C1.125 20.3344 6.66563 25.875 13.5 25.875C20.3344 25.875 25.875 20.3344 25.875 13.5C25.875 6.66563 20.3344 1.125 13.5 1.125ZM18.864 11.4075C18.9628 11.2946 19.038 11.1631 19.0852 11.0207C19.1324 10.8783 19.1506 10.7279 19.1388 10.5784C19.127 10.4288 19.0854 10.2831 19.0165 10.1499C18.9476 10.0167 18.8527 9.89854 18.7375 9.80251C18.6223 9.70648 18.489 9.63446 18.3455 9.5907C18.202 9.54693 18.0512 9.53231 17.902 9.54768C17.7528 9.56305 17.6081 9.60812 17.4766 9.68021C17.345 9.75231 17.2292 9.84999 17.136 9.9675L12.2985 15.7714L9.79537 13.2671C9.5832 13.0622 9.29902 12.9488 9.00405 12.9514C8.70908 12.9539 8.42691 13.0722 8.21833 13.2808C8.00975 13.4894 7.89143 13.7716 7.88887 14.0665C7.8863 14.3615 7.9997 14.6457 8.20463 14.8579L11.5796 18.2329C11.6902 18.3433 11.8225 18.4296 11.9682 18.4861C12.1139 18.5426 12.2698 18.5681 12.4259 18.561C12.582 18.5539 12.735 18.5143 12.875 18.4449C13.015 18.3754 13.1389 18.2775 13.239 18.1575L18.864 11.4075Z" fill="#93BF4C"/>
</svg>
