<svg width="18" height="18" viewBox="0 0 18 18" fill="none" xmlns="http://www.w3.org/2000/svg">
<path d="M9.76018 1.95977L10.9261 5.54812C11.1671 6.28976 11.8582 6.79189 12.638 6.79189H16.411C17.186 6.79189 17.5082 7.78358 16.8813 8.2391L13.8288 10.4568C13.1979 10.9152 12.934 11.7276 13.1749 12.4693L14.3409 16.0576C14.5803 16.7947 13.7368 17.4076 13.1098 16.9521L10.0574 14.7343C9.42647 14.276 8.5722 14.276 7.94132 14.7343L4.88889 16.9521C4.26192 17.4076 3.41833 16.7947 3.65782 16.0576L4.82374 12.4693C5.06471 11.7276 4.80073 10.9152 4.16985 10.4568L1.11742 8.2391C0.490449 7.78358 0.81267 6.79189 1.58765 6.79189H5.36066C6.14047 6.79189 6.83159 6.28976 7.07257 5.54812L8.23849 1.95977C8.47797 1.22272 9.5207 1.22272 9.76018 1.95977Z" stroke="#D9D9D9"/>
</svg>
