<svg width="18" height="17" viewBox="0 0 18 17" fill="none" xmlns="http://www.w3.org/2000/svg">
<path d="M9.47503 1.05279L10.641 4.64114C10.8819 5.38278 11.573 5.88491 12.3529 5.88491H16.1259C16.9009 5.88491 17.2231 6.8766 16.5961 7.33212L13.5437 9.54984C12.9128 10.0082 12.6488 10.8207 12.8898 11.5623L14.0557 15.1507C14.2952 15.8877 13.4516 16.5006 12.8246 16.0451L9.77219 13.8274C9.14132 13.369 8.28704 13.369 7.65617 13.8274L4.60373 16.0451C3.97676 16.5006 3.13318 15.8877 3.37266 15.1507L4.53859 11.5623C4.77956 10.8207 4.51557 10.0082 3.8847 9.54984L0.832264 7.33212C0.205292 6.8766 0.527514 5.88491 1.30249 5.88491H5.07551C5.85531 5.88491 6.54643 5.38278 6.78741 4.64114L7.95333 1.05279C8.19282 0.315737 9.23555 0.315739 9.47503 1.05279Z" stroke="#D9D9D9"/>
<path fill-rule="evenodd" clip-rule="evenodd" d="M8.71418 0C8.19328 4.23214e-07 7.67239 0.299427 7.47781 0.898279L6.31188 4.48663C6.13784 5.02226 5.6387 5.38491 5.07551 5.38491H1.30249C0.0431512 5.38491 -0.480457 6.99641 0.538371 7.73663L3.5908 9.95435C4.04644 10.2854 4.23709 10.8722 4.06306 11.4078L2.89713 14.9961C2.50797 16.1939 3.8788 17.1898 4.89763 16.4496L7.95006 14.2319C8.17788 14.0664 8.44603 13.9836 8.71418 13.9836V0Z" fill="#F2BB57"/>
</svg>
