<svg width="18" height="18" viewBox="0 0 18 18" fill="none" xmlns="http://www.w3.org/2000/svg">
<path d="M7.76296 1.80526C8.15212 0.607558 9.84655 0.607556 10.2357 1.80526L11.4016 5.39361C11.5757 5.92924 12.0748 6.29189 12.638 6.29189H16.411C17.6704 6.29189 18.194 7.90339 17.1751 8.64361L14.1227 10.8613C13.6671 11.1924 13.4764 11.7791 13.6505 12.3148L14.8164 15.9031C15.2055 17.1008 13.8347 18.0968 12.8159 17.3566L9.76346 15.1389C9.30782 14.8078 8.69085 14.8078 8.23522 15.1389L5.18278 17.3566C4.16396 18.0968 2.79313 17.1008 3.18229 15.9031L4.34821 12.3148C4.52225 11.7792 4.33159 11.1924 3.87596 10.8613L0.823527 8.64361C-0.1953 7.90339 0.328308 6.29189 1.58765 6.29189H5.36066C5.92386 6.29189 6.423 5.92924 6.59704 5.39361L7.76296 1.80526Z" fill="#F2BB57"/>
</svg>
